<mxfile host="app.diagrams.net" agent="Mozilla/5.0 (X11; Ubuntu; Linux x86_64; rv:135.0) Gecko/20100101 Firefox/135.0" version="26.0.16">
  <diagram name="1 oldal" id="ePNQGzg98f3rhtgzejXV">
    <mxGraphModel dx="1085" dy="637" grid="1" gridSize="10" guides="1" tooltips="1" connect="1" arrows="1" fold="1" page="1" pageScale="1" pageWidth="827" pageHeight="1169" math="0" shadow="0">
      <root>
        <mxCell id="0" />
        <mxCell id="1" parent="0" />
        <mxCell id="sAZUqS_JhSlkfdYbxXpa-1" value="Szerep-Funkció Diagram" style="shape=table;childLayout=tableLayout;startSize=40;collapsible=0;recursiveResize=0;expand=0;fontSize=16;" vertex="1" parent="1">
          <mxGeometry x="240" y="70" width="1290" height="400" as="geometry" />
        </mxCell>
        <mxCell id="sAZUqS_JhSlkfdYbxXpa-2" value="Látogató" style="shape=tableRow;horizontal=0;swimlaneHead=0;swimlaneBody=0;top=0;left=0;strokeColor=inherit;bottom=0;right=0;dropTarget=0;fontStyle=0;fillColor=none;points=[[0,0.5],[1,0.5]];portConstraint=eastwest;startSize=40;collapsible=0;recursiveResize=0;expand=0;fontSize=16;" vertex="1" parent="sAZUqS_JhSlkfdYbxXpa-1">
          <mxGeometry y="40" width="1290" height="120" as="geometry" />
        </mxCell>
        <mxCell id="sAZUqS_JhSlkfdYbxXpa-3" value="Menetrend megtekintése" style="swimlane;swimlaneHead=0;swimlaneBody=0;fontStyle=0;strokeColor=inherit;connectable=0;fillColor=none;startSize=40;collapsible=0;recursiveResize=0;expand=0;fontSize=16;flipH=1;flipV=0;" vertex="1" parent="sAZUqS_JhSlkfdYbxXpa-2">
          <mxGeometry x="40" width="196" height="120" as="geometry">
            <mxRectangle width="196" height="120" as="alternateBounds" />
          </mxGeometry>
        </mxCell>
        <mxCell id="sAZUqS_JhSlkfdYbxXpa-65" value="&lt;div&gt;X&lt;/div&gt;" style="text;html=1;align=center;verticalAlign=middle;resizable=0;points=[];autosize=1;strokeColor=none;fillColor=none;" vertex="1" parent="sAZUqS_JhSlkfdYbxXpa-3">
          <mxGeometry x="83" y="60" width="30" height="30" as="geometry" />
        </mxCell>
        <mxCell id="sAZUqS_JhSlkfdYbxXpa-4" value="Állomás megtekintése" style="swimlane;swimlaneHead=0;swimlaneBody=0;fontStyle=0;strokeColor=inherit;connectable=0;fillColor=none;startSize=40;collapsible=0;recursiveResize=0;expand=0;fontSize=16;" vertex="1" parent="sAZUqS_JhSlkfdYbxXpa-2">
          <mxGeometry x="236" width="164" height="120" as="geometry">
            <mxRectangle width="164" height="120" as="alternateBounds" />
          </mxGeometry>
        </mxCell>
        <mxCell id="sAZUqS_JhSlkfdYbxXpa-68" value="&lt;div&gt;X&lt;/div&gt;" style="text;html=1;align=center;verticalAlign=middle;resizable=0;points=[];autosize=1;strokeColor=none;fillColor=none;" vertex="1" parent="sAZUqS_JhSlkfdYbxXpa-4">
          <mxGeometry x="67" y="60" width="30" height="30" as="geometry" />
        </mxCell>
        <mxCell id="sAZUqS_JhSlkfdYbxXpa-5" value="Jegy váltása" style="swimlane;swimlaneHead=0;swimlaneBody=0;fontStyle=0;strokeColor=inherit;connectable=0;fillColor=none;startSize=40;collapsible=0;recursiveResize=0;expand=0;fontSize=16;" vertex="1" parent="sAZUqS_JhSlkfdYbxXpa-2">
          <mxGeometry x="400" width="130" height="120" as="geometry">
            <mxRectangle width="130" height="120" as="alternateBounds" />
          </mxGeometry>
        </mxCell>
        <mxCell id="sAZUqS_JhSlkfdYbxXpa-53" value="Vonatok kezelése" style="swimlane;swimlaneHead=0;swimlaneBody=0;fontStyle=0;strokeColor=inherit;connectable=0;fillColor=none;startSize=40;collapsible=0;recursiveResize=0;expand=0;fontSize=16;" vertex="1" parent="sAZUqS_JhSlkfdYbxXpa-2">
          <mxGeometry x="530" width="160" height="120" as="geometry">
            <mxRectangle width="160" height="120" as="alternateBounds" />
          </mxGeometry>
        </mxCell>
        <mxCell id="sAZUqS_JhSlkfdYbxXpa-56" value="Állomások kezelése" style="swimlane;swimlaneHead=0;swimlaneBody=0;fontStyle=0;strokeColor=inherit;connectable=0;fillColor=none;startSize=40;collapsible=0;recursiveResize=0;expand=0;fontSize=16;" vertex="1" parent="sAZUqS_JhSlkfdYbxXpa-2">
          <mxGeometry x="690" width="170" height="120" as="geometry">
            <mxRectangle width="170" height="120" as="alternateBounds" />
          </mxGeometry>
        </mxCell>
        <mxCell id="sAZUqS_JhSlkfdYbxXpa-59" value="Statisztika készítése" style="swimlane;swimlaneHead=0;swimlaneBody=0;fontStyle=0;strokeColor=inherit;connectable=0;fillColor=none;startSize=40;collapsible=0;recursiveResize=0;expand=0;fontSize=16;" vertex="1" parent="sAZUqS_JhSlkfdYbxXpa-2">
          <mxGeometry x="860" width="170" height="120" as="geometry">
            <mxRectangle width="170" height="120" as="alternateBounds" />
          </mxGeometry>
        </mxCell>
        <mxCell id="sAZUqS_JhSlkfdYbxXpa-62" value="Saját korábbi jegyek megtekintése" style="swimlane;swimlaneHead=0;swimlaneBody=0;fontStyle=0;strokeColor=inherit;connectable=0;fillColor=none;startSize=40;collapsible=0;recursiveResize=0;expand=0;fontSize=16;" vertex="1" parent="sAZUqS_JhSlkfdYbxXpa-2">
          <mxGeometry x="1030" width="260" height="120" as="geometry">
            <mxRectangle width="260" height="120" as="alternateBounds" />
          </mxGeometry>
        </mxCell>
        <mxCell id="sAZUqS_JhSlkfdYbxXpa-6" value="Tag" style="shape=tableRow;horizontal=0;swimlaneHead=0;swimlaneBody=0;top=0;left=0;strokeColor=inherit;bottom=0;right=0;dropTarget=0;fontStyle=0;fillColor=none;points=[[0,0.5],[1,0.5]];portConstraint=eastwest;startSize=40;collapsible=0;recursiveResize=0;expand=0;fontSize=16;" vertex="1" parent="sAZUqS_JhSlkfdYbxXpa-1">
          <mxGeometry y="160" width="1290" height="120" as="geometry" />
        </mxCell>
        <mxCell id="sAZUqS_JhSlkfdYbxXpa-7" value="" style="swimlane;swimlaneHead=0;swimlaneBody=0;fontStyle=0;connectable=0;strokeColor=inherit;fillColor=none;startSize=0;collapsible=0;recursiveResize=0;expand=0;fontSize=16;" vertex="1" parent="sAZUqS_JhSlkfdYbxXpa-6">
          <mxGeometry x="40" width="196" height="120" as="geometry">
            <mxRectangle width="196" height="120" as="alternateBounds" />
          </mxGeometry>
        </mxCell>
        <mxCell id="sAZUqS_JhSlkfdYbxXpa-66" value="&lt;div&gt;X&lt;/div&gt;" style="text;html=1;align=center;verticalAlign=middle;resizable=0;points=[];autosize=1;strokeColor=none;fillColor=none;" vertex="1" parent="sAZUqS_JhSlkfdYbxXpa-7">
          <mxGeometry x="83" y="45" width="30" height="30" as="geometry" />
        </mxCell>
        <mxCell id="sAZUqS_JhSlkfdYbxXpa-8" value="" style="swimlane;swimlaneHead=0;swimlaneBody=0;fontStyle=0;connectable=0;strokeColor=inherit;fillColor=none;startSize=0;collapsible=0;recursiveResize=0;expand=0;fontSize=16;" vertex="1" parent="sAZUqS_JhSlkfdYbxXpa-6">
          <mxGeometry x="236" width="164" height="120" as="geometry">
            <mxRectangle width="164" height="120" as="alternateBounds" />
          </mxGeometry>
        </mxCell>
        <mxCell id="sAZUqS_JhSlkfdYbxXpa-69" value="&lt;div&gt;X&lt;/div&gt;" style="text;html=1;align=center;verticalAlign=middle;resizable=0;points=[];autosize=1;strokeColor=none;fillColor=none;" vertex="1" parent="sAZUqS_JhSlkfdYbxXpa-8">
          <mxGeometry x="67" y="45" width="30" height="30" as="geometry" />
        </mxCell>
        <mxCell id="sAZUqS_JhSlkfdYbxXpa-9" value="" style="swimlane;swimlaneHead=0;swimlaneBody=0;fontStyle=0;connectable=0;strokeColor=inherit;fillColor=none;startSize=0;collapsible=0;recursiveResize=0;expand=0;fontSize=16;" vertex="1" parent="sAZUqS_JhSlkfdYbxXpa-6">
          <mxGeometry x="400" width="130" height="120" as="geometry">
            <mxRectangle width="130" height="120" as="alternateBounds" />
          </mxGeometry>
        </mxCell>
        <mxCell id="sAZUqS_JhSlkfdYbxXpa-71" value="&lt;div&gt;X&lt;/div&gt;" style="text;html=1;align=center;verticalAlign=middle;resizable=0;points=[];autosize=1;strokeColor=none;fillColor=none;" vertex="1" parent="sAZUqS_JhSlkfdYbxXpa-9">
          <mxGeometry x="50" y="45" width="30" height="30" as="geometry" />
        </mxCell>
        <mxCell id="sAZUqS_JhSlkfdYbxXpa-54" style="swimlane;swimlaneHead=0;swimlaneBody=0;fontStyle=0;connectable=0;strokeColor=inherit;fillColor=none;startSize=0;collapsible=0;recursiveResize=0;expand=0;fontSize=16;" vertex="1" parent="sAZUqS_JhSlkfdYbxXpa-6">
          <mxGeometry x="530" width="160" height="120" as="geometry">
            <mxRectangle width="160" height="120" as="alternateBounds" />
          </mxGeometry>
        </mxCell>
        <mxCell id="sAZUqS_JhSlkfdYbxXpa-57" style="swimlane;swimlaneHead=0;swimlaneBody=0;fontStyle=0;connectable=0;strokeColor=inherit;fillColor=none;startSize=0;collapsible=0;recursiveResize=0;expand=0;fontSize=16;" vertex="1" parent="sAZUqS_JhSlkfdYbxXpa-6">
          <mxGeometry x="690" width="170" height="120" as="geometry">
            <mxRectangle width="170" height="120" as="alternateBounds" />
          </mxGeometry>
        </mxCell>
        <mxCell id="sAZUqS_JhSlkfdYbxXpa-60" style="swimlane;swimlaneHead=0;swimlaneBody=0;fontStyle=0;connectable=0;strokeColor=inherit;fillColor=none;startSize=0;collapsible=0;recursiveResize=0;expand=0;fontSize=16;" vertex="1" parent="sAZUqS_JhSlkfdYbxXpa-6">
          <mxGeometry x="860" width="170" height="120" as="geometry">
            <mxRectangle width="170" height="120" as="alternateBounds" />
          </mxGeometry>
        </mxCell>
        <mxCell id="sAZUqS_JhSlkfdYbxXpa-63" style="swimlane;swimlaneHead=0;swimlaneBody=0;fontStyle=0;connectable=0;strokeColor=inherit;fillColor=none;startSize=0;collapsible=0;recursiveResize=0;expand=0;fontSize=16;" vertex="1" parent="sAZUqS_JhSlkfdYbxXpa-6">
          <mxGeometry x="1030" width="260" height="120" as="geometry">
            <mxRectangle width="260" height="120" as="alternateBounds" />
          </mxGeometry>
        </mxCell>
        <mxCell id="sAZUqS_JhSlkfdYbxXpa-76" value="&lt;div&gt;X&lt;/div&gt;" style="text;html=1;align=center;verticalAlign=middle;resizable=0;points=[];autosize=1;strokeColor=none;fillColor=none;" vertex="1" parent="sAZUqS_JhSlkfdYbxXpa-63">
          <mxGeometry x="115" y="45" width="30" height="30" as="geometry" />
        </mxCell>
        <mxCell id="sAZUqS_JhSlkfdYbxXpa-10" value="Admin" style="shape=tableRow;horizontal=0;swimlaneHead=0;swimlaneBody=0;top=0;left=0;strokeColor=inherit;bottom=0;right=0;dropTarget=0;fontStyle=0;fillColor=none;points=[[0,0.5],[1,0.5]];portConstraint=eastwest;startSize=40;collapsible=0;recursiveResize=0;expand=0;fontSize=16;" vertex="1" parent="sAZUqS_JhSlkfdYbxXpa-1">
          <mxGeometry y="280" width="1290" height="120" as="geometry" />
        </mxCell>
        <mxCell id="sAZUqS_JhSlkfdYbxXpa-11" value="" style="swimlane;swimlaneHead=0;swimlaneBody=0;fontStyle=0;connectable=0;strokeColor=inherit;fillColor=none;startSize=0;collapsible=0;recursiveResize=0;expand=0;fontSize=16;" vertex="1" parent="sAZUqS_JhSlkfdYbxXpa-10">
          <mxGeometry x="40" width="196" height="120" as="geometry">
            <mxRectangle width="196" height="120" as="alternateBounds" />
          </mxGeometry>
        </mxCell>
        <mxCell id="sAZUqS_JhSlkfdYbxXpa-67" value="&lt;div&gt;X&lt;/div&gt;" style="text;html=1;align=center;verticalAlign=middle;resizable=0;points=[];autosize=1;strokeColor=none;fillColor=none;" vertex="1" parent="sAZUqS_JhSlkfdYbxXpa-11">
          <mxGeometry x="83" y="45" width="30" height="30" as="geometry" />
        </mxCell>
        <mxCell id="sAZUqS_JhSlkfdYbxXpa-12" value="" style="swimlane;swimlaneHead=0;swimlaneBody=0;fontStyle=0;connectable=0;strokeColor=inherit;fillColor=none;startSize=0;collapsible=0;recursiveResize=0;expand=0;fontSize=16;" vertex="1" parent="sAZUqS_JhSlkfdYbxXpa-10">
          <mxGeometry x="236" width="164" height="120" as="geometry">
            <mxRectangle width="164" height="120" as="alternateBounds" />
          </mxGeometry>
        </mxCell>
        <mxCell id="sAZUqS_JhSlkfdYbxXpa-70" value="&lt;div&gt;X&lt;/div&gt;" style="text;html=1;align=center;verticalAlign=middle;resizable=0;points=[];autosize=1;strokeColor=none;fillColor=none;" vertex="1" parent="sAZUqS_JhSlkfdYbxXpa-12">
          <mxGeometry x="67" y="45" width="30" height="30" as="geometry" />
        </mxCell>
        <mxCell id="sAZUqS_JhSlkfdYbxXpa-13" value="" style="swimlane;swimlaneHead=0;swimlaneBody=0;fontStyle=0;connectable=0;strokeColor=inherit;fillColor=none;startSize=0;collapsible=0;recursiveResize=0;expand=0;fontSize=16;" vertex="1" parent="sAZUqS_JhSlkfdYbxXpa-10">
          <mxGeometry x="400" width="130" height="120" as="geometry">
            <mxRectangle width="130" height="120" as="alternateBounds" />
          </mxGeometry>
        </mxCell>
        <mxCell id="sAZUqS_JhSlkfdYbxXpa-72" value="&lt;div&gt;X&lt;/div&gt;" style="text;html=1;align=center;verticalAlign=middle;resizable=0;points=[];autosize=1;strokeColor=none;fillColor=none;" vertex="1" parent="sAZUqS_JhSlkfdYbxXpa-13">
          <mxGeometry x="50" y="45" width="30" height="30" as="geometry" />
        </mxCell>
        <mxCell id="sAZUqS_JhSlkfdYbxXpa-55" style="swimlane;swimlaneHead=0;swimlaneBody=0;fontStyle=0;connectable=0;strokeColor=inherit;fillColor=none;startSize=0;collapsible=0;recursiveResize=0;expand=0;fontSize=16;" vertex="1" parent="sAZUqS_JhSlkfdYbxXpa-10">
          <mxGeometry x="530" width="160" height="120" as="geometry">
            <mxRectangle width="160" height="120" as="alternateBounds" />
          </mxGeometry>
        </mxCell>
        <mxCell id="sAZUqS_JhSlkfdYbxXpa-73" value="&lt;div&gt;X&lt;/div&gt;" style="text;html=1;align=center;verticalAlign=middle;resizable=0;points=[];autosize=1;strokeColor=none;fillColor=none;" vertex="1" parent="sAZUqS_JhSlkfdYbxXpa-55">
          <mxGeometry x="65" y="45" width="30" height="30" as="geometry" />
        </mxCell>
        <mxCell id="sAZUqS_JhSlkfdYbxXpa-58" style="swimlane;swimlaneHead=0;swimlaneBody=0;fontStyle=0;connectable=0;strokeColor=inherit;fillColor=none;startSize=0;collapsible=0;recursiveResize=0;expand=0;fontSize=16;" vertex="1" parent="sAZUqS_JhSlkfdYbxXpa-10">
          <mxGeometry x="690" width="170" height="120" as="geometry">
            <mxRectangle width="170" height="120" as="alternateBounds" />
          </mxGeometry>
        </mxCell>
        <mxCell id="sAZUqS_JhSlkfdYbxXpa-74" value="&lt;div&gt;X&lt;/div&gt;" style="text;html=1;align=center;verticalAlign=middle;resizable=0;points=[];autosize=1;strokeColor=none;fillColor=none;" vertex="1" parent="sAZUqS_JhSlkfdYbxXpa-58">
          <mxGeometry x="70" y="45" width="30" height="30" as="geometry" />
        </mxCell>
        <mxCell id="sAZUqS_JhSlkfdYbxXpa-61" style="swimlane;swimlaneHead=0;swimlaneBody=0;fontStyle=0;connectable=0;strokeColor=inherit;fillColor=none;startSize=0;collapsible=0;recursiveResize=0;expand=0;fontSize=16;" vertex="1" parent="sAZUqS_JhSlkfdYbxXpa-10">
          <mxGeometry x="860" width="170" height="120" as="geometry">
            <mxRectangle width="170" height="120" as="alternateBounds" />
          </mxGeometry>
        </mxCell>
        <mxCell id="sAZUqS_JhSlkfdYbxXpa-75" value="&lt;div&gt;X&lt;/div&gt;" style="text;html=1;align=center;verticalAlign=middle;resizable=0;points=[];autosize=1;strokeColor=none;fillColor=none;" vertex="1" parent="sAZUqS_JhSlkfdYbxXpa-61">
          <mxGeometry x="70" y="45" width="30" height="30" as="geometry" />
        </mxCell>
        <mxCell id="sAZUqS_JhSlkfdYbxXpa-64" style="swimlane;swimlaneHead=0;swimlaneBody=0;fontStyle=0;connectable=0;strokeColor=inherit;fillColor=none;startSize=0;collapsible=0;recursiveResize=0;expand=0;fontSize=16;" vertex="1" parent="sAZUqS_JhSlkfdYbxXpa-10">
          <mxGeometry x="1030" width="260" height="120" as="geometry">
            <mxRectangle width="260" height="120" as="alternateBounds" />
          </mxGeometry>
        </mxCell>
        <mxCell id="sAZUqS_JhSlkfdYbxXpa-77" value="&lt;div&gt;X&lt;/div&gt;" style="text;html=1;align=center;verticalAlign=middle;resizable=0;points=[];autosize=1;strokeColor=none;fillColor=none;" vertex="1" parent="sAZUqS_JhSlkfdYbxXpa-64">
          <mxGeometry x="115" y="45" width="30" height="30" as="geometry" />
        </mxCell>
      </root>
    </mxGraphModel>
  </diagram>
</mxfile>
